<svg viewBox="0 0 200 200" xmlns="http://www.w3.org/2000/svg">
  <path fill="#4CDFFD" d="M37,-66C49.4,-56.9,61.8,-49.9,66.2,-39.2C70.6,-28.6,67,-14.3,64.1,-1.6C61.3,11,59.2,22,55.2,33.3C51.1,44.6,45.1,56.1,35.6,62.6C26.1,69.1,13,70.5,0.7,69.3C-11.7,68.1,-23.4,64.5,-33.8,58.5C-44.3,52.6,-53.5,44.4,-58.4,34.3C-63.2,24.1,-63.8,12.1,-64.8,-0.6C-65.8,-13.2,-67.3,-26.5,-62.3,-36.4C-57.3,-46.4,-45.9,-53.1,-34.5,-62.7C-23,-72.3,-11.5,-84.7,0.4,-85.4C12.3,-86.1,24.6,-75,37,-66Z" transform="translate(100 100)" />
</svg>